#!OML:ASF E:\Steps\Project 1\Capture day 1\Session 2\Subject.ASF
:FULLY-SPECIFIED
:DEGREES
366
root 23.6051 16.1904 10.7342 -157.729 -1.41332 180.689
lowerback -27.8987 -2.61794 -3.86559
upperback 0.840607 -2.72834 1.59148
thorax 16.1459 -1.70595 2.75561
lowerneck 2.85045 -0.522241 -3.46521
upperneck 11.6783 -0.731522 11.5732
head 3.01688 0.308048 4.10995
rclavicle -2.168e-014 4.17448e-015
rhumerus -38.7311 -18.4292 -76.7516
rradius 35.4054
rwrist -4.21726
rhand -7.37435 -53.2134
rfingers 7.12502
rthumb 18.5108 -82.3526
lclavicle -2.168e-014 4.17448e-015
lhumerus -30.8064 2.51957 80.1691
lradius 22.7513
lwrist -5.49569
lhand -20.982 -11.0074
lfingers 7.12502
lthumb 5.39169 18.904
rfemur -27.6056 4.41368 24.839
rtibia 10.8381
rfoot -14.4088 -5.64113
rtoes -31.7795
lfemur -38.1082 -1.67326 -19.8555
ltibia 72.4359
lfoot 1.45537 4.74602
ltoes -27.9689
367
root 23.6267 16.1945 10.6136 -157.412 -1.24328 180.753
lowerback -28.0614 -2.54772 -3.94774
upperback 0.736703 -2.62018 1.60066
thorax 16.0953 -1.66938 2.8488
lowerneck 2.98921 -0.582124 -3.47766
upperneck 11.4746 -0.804763 11.3828
head 2.93974 0.24477 4.04833
rclavicle 7.66563e-015 -2.78299e-015
rhumerus -38.1446 -17.6595 -77.3472
rradius 36.2324
rwrist -4.9968
rhand -7.87419 -53.3703
rfingers 7.12502
rthumb 18.0299 -82.5546
lclavicle 7.66563e-015 -2.78299e-015
lhumerus -30.989 2.74362 79.9681
lradius 22.8735
lwrist -5.00509
lhand -21.1921 -10.7897
lfingers 7.12502
lthumb 5.18892 19.1268
rfemur -27.2526 3.73272 25.2673
rtibia 10.3975
rfoot -14.5637 -4.79003
rtoes -32.4102
lfemur -40.0661 -1.87011 -19.6328
ltibia 72.7798
lfoot -0.000919346 4.46615
ltoes -27.9862
368
root 23.6352 16.2147 10.4712 -157.962 -0.940725 180.929
lowerback -27.659 -2.37696 -3.76335
upperback 0.919614 -2.43426 1.55595
thorax 16.092 -1.5635 2.78639
lowerneck 3.78672 -0.660317 -3.34843
upperneck 10.2785 -0.818422 10.6065
head 2.75973 0.114089 4.17665
rclavicle -3.60297e-015 -2.78299e-015
rhumerus -37.4715 -16.8985 -77.9317
rradius 36.9453
rwrist -5.49813
rhand -7.50192 -52.6535
rfingers 7.12502
rthumb 18.388 -81.8044
lclavicle -3.60297e-015 -2.78299e-015
lhumerus -31.1614 3.08698 79.6985
lradius 23.1014
lwrist -4.46363
lhand -21.3704 -10.5092
lfingers 7.12502
lthumb 5.01666 19.4114
rfemur -25.6877 3.40442 25.5897
rtibia 9.64712
rfoot -14.7633 -4.13577
rtoes -32.6484
lfemur -40.7662 -1.94833 -19.446
ltibia 72.5617
lfoot -1.32343 4.54461
ltoes -25.8304
369
root 23.6468 16.2238 10.3353 -158.176 -0.60737 180.89
lowerback -27.5363 -2.27281 -3.83131
upperback 1.0148 -2.25012 1.46072
thorax 16.1266 -1.48097 2.79672
lowerneck 3.60968 -0.272374 -3.42168
upperneck 11.8481 -0.311646 10.4474
head 2.91675 0.461146 3.76087
rclavicle -8.02593e-015 -6.75868e-015
rhumerus -36.9349 -16.3483 -78.3705
rradius 37.6724
rwrist -5.80819
rhand -8.72914 -59.3831
rfingers 7.12502
rthumb 17.2072 -88.6412
lclavicle -8.02593e-015 -6.75868e-015
lhumerus -31.3254 3.47093 79.3511
lradius 23.2877
lwrist -3.94452
lhand -21.3433 -10.3137
lfingers 7.12502
lthumb 5.04285 19.6063
rfemur -24.6829 3.52059 25.5633
rtibia 9.28004
rfoot -14.97 -3.96613
rtoes -32.4699
lfemur -41.6561 -2.2663 -19.4176
ltibia 71.9721
lfoot -2.23972 4.8203
ltoes -23.2307
370
root 23.6613 16.2232 10.2067 -158.122 -0.230813 180.65
lowerback -27.6299 -2.16662 -4.1366
upperback 1.05645 -1.97292 1.27869
thorax 16.1977 -1.37638 2.87288
lowerneck 3.36867 0.114681 -3.61503
upperneck 12.618 0.233056 10.1764
head 3.1492 0.756939 3.73036
rclavicle -7.70291e-015 1.09332e-015
rhumerus -36.4522 -15.8591 -78.8751
rradius 38.7103
rwrist -6.33559
rhand -8.77852 -58.4628
rfingers 7.12502
rthumb 17.1596 -87.7251
lclavicle -7.70291e-015 1.09332e-015
lhumerus -31.2877 3.38646 79.1299
lradius 23.2458
lwrist -3.25647
lhand -21.505 -10.414
lfingers 7.12502
lthumb 4.88672 19.5096
rfemur -24.1841 3.78152 25.3166
rtibia 9.26349
rfoot -15.3007 -4.07094
rtoes -32.6092
lfemur -42.7826 -2.71326 -19.5723
ltibia 71.2338
lfoot -3.23779 5.22445
ltoes -25.6488
371
root 23.6776 16.2206 10.0821 -158.047 0.245765 180.424
lowerback -27.661 -2.32497 -4.30274
upperback 1.08321 -1.56038 1.08243
thorax 16.2168 -0.982532 2.97451
lowerneck 2.85233 0.556996 -3.73857
upperneck 13.3429 0.845391 10.0138
head 3.40933 1.09155 3.72698
rclavicle 2.83268e-015 6.75868e-015
rhumerus -36.0108 -15.3269 -79.3273
rradius 39.6558
rwrist -6.53895
rhand -7.50769 -53.397
rfingers 7.12502
rthumb 18.3825 -82.5485
lclavicle 2.83268e-015 6.75868e-015
lhumerus -31.2785 2.66721 79.1437
lradius 23.2696
lwrist -2.00679
lhand -21.8894 -10.2618
lfingers 7.12502
lthumb 4.5156 19.6701
rfemur -23.7247 3.9643 25.1223
rtibia 9.19728
rfoot -15.9557 -3.92065
rtoes -32.4337
lfemur -43.9483 -2.97846 -19.7092
ltibia 70.4203
lfoot -4.26198 5.79628
ltoes -29.9114
372
root 23.6925 16.2196 9.9561 -157.984 0.715238 180.429
lowerback -27.7095 -2.22898 -4.38828
upperback 0.955351 -1.38379 1.04934
thorax 16.0734 -0.899339 3.05598
lowerneck 3.09502 0.465289 -3.87336
upperneck 13.705 0.750294 9.95661
head 3.48471 1.05744 3.73651
rclavicle -1.23743e-014 4.77083e-015
rhumerus -35.7719 -14.5187 -79.6102
rradius 40.3297
rwrist -6.78139
rhand -7.53011 -50.2817
rfingers 7.12502
rthumb 18.3609 -79.4352
lclavicle -1.23743e-014 4.77083e-015
lhumerus -31.8847 2.64342 78.9982
lradius 23.6008
lwrist -1.01065
lhand -21.8279 -9.61448
lfingers 7.12502
lthumb 4.57499 20.3161
rfemur -23.1913 4.09433 25.192
rtibia 9.04752
rfoot -16.2249 -3.50822
rtoes -32.1075
lfemur -45.0464 -3.07255 -19.5651
ltibia 69.4183
lfoot -4.62816 6.28675
ltoes -30.2517
373
root 23.7065 16.2203 9.82985 -158.013 1.11689 180.536
lowerback -27.6907 -2.06641 -4.30552
upperback 0.950619 -1.18665 0.98032
thorax 16.037 -0.8026 3.01297
lowerneck 3.18636 0.353024 -3.91378
upperneck 13.9026 0.612136 9.93572
head 3.53898 0.998773 3.73831
rclavicle -3.8763e-015 -5.96354e-015
rhumerus -35.1249 -14.2597 -79.9096
rradius 40.5618
rwrist -6.79482
rhand -7.84463 -54.3732
rfingers 7.12502
rthumb 18.0583 -83.5549
lclavicle -3.8763e-015 -5.96354e-015
lhumerus -32.2283 3.29596 78.5347
lradius 23.8882
lwrist -0.819257
lhand -21.4661 -9.30885
lfingers 7.12502
lthumb 4.92431 20.6139
rfemur -22.849 5.24519 25.1987
rtibia 9.56362
rfoot -17.0992 -4.25776
rtoes -32.296
lfemur -46.0485 -3.13096 -19.2583
ltibia 68.3019
lfoot -4.39526 6.66052
ltoes -27.4352
374
root 23.7187 16.2162 9.69879 -158.195 1.48968 180.499
lowerback -27.5936 -1.85416 -4.33617
upperback 1.02732 -0.875772 0.773558
thorax 16.0476 -0.665263 2.92568
lowerneck 3.1828 0.12665 -3.68436
upperneck 14.1137 0.325941 9.88712
head 3.62508 0.884008 3.68431
rclavicle -4.87022e-015 -4.77083e-015
rhumerus -34.5863 -14.1398 -80.3127
rradius 41.0377
rwrist -7.00747
rhand -8.17611 -65.9255
rfingers 7.12502
rthumb 17.7394 95.1363
lclavicle -4.87022e-015 -4.77083e-015
lhumerus -32.5087 3.41808 78.1613
lradius 24.3521
lwrist -0.669159
lhand -21.227 -8.97156
lfingers 7.12502
lthumb 5.15519 20.9457
rfemur -21.7439 4.81973 25.3059
rtibia 8.81139
rfoot -17.3365 -3.68986
rtoes -33.2032
lfemur -46.8409 -3.35262 -19.068
ltibia 67.1057
lfoot -4.45771 6.98377
ltoes -25.305
375
root 23.729 16.2073 9.56479 -158.309 2.02722 180.32
lowerback -27.5921 -1.67748 -4.55642
upperback 1.09291 -0.539075 0.563015
thorax 16.0932 -0.530389 2.94789
lowerneck 3.17906 -0.142544 -3.4844
upperneck 14.2216 -0.0213761 9.72904
head 3.68454 0.722715 3.5972
rclavicle -9.83984e-015 1.98785e-016
rhumerus -34.0618 -13.8583 -80.6482
rradius 41.5703
rwrist -7.13394
rhand -7.44859 -71.6979
rfingers 7.12502
rthumb 18.4393 100.844
lclavicle -9.83984e-015 1.98785e-016
lhumerus -32.7746 3.43383 77.9338
lradius 24.7098
lwrist -0.506611
lhand -21.3124 -8.33972
lfingers 7.12502
lthumb 5.07266 21.5796
rfemur -21.3703 5.17342 25.0827
rtibia 9.42511
rfoot -18.1395 -3.8653
rtoes -33.6835
lfemur -47.5429 -3.56695 -19.0601
ltibia 65.7263
lfoot -5.26635 7.15668
ltoes -24.1812
376
root 23.7405 16.1997 9.44215 -158.149 2.83807 180.239
lowerback -27.6542 -1.47095 -4.7791
upperback 1.01385 -0.163746 0.459743
thorax 15.9961 -0.371247 3.10456
lowerneck 3.15808 -0.184319 -3.32825
upperneck 13.7856 -0.0868787 9.48359
head 3.56338 0.654368 3.48457
rclavicle -3.03147e-015 5.36719e-015
rhumerus -33.5165 -13.3233 -80.8525
rradius 41.9365
rwrist -7.18082
rhand -6.43859 -70.3594
rfingers 7.12502
rthumb 19.4107 99.4105
lclavicle -3.03147e-015 5.36719e-015
lhumerus -32.9224 3.76016 77.7151
lradius 24.5463
lwrist -0.514528
lhand -21.6661 -8.39477
lfingers 7.12502
lthumb 4.7312 21.5324
rfemur -21.3806 5.14185 24.9854
rtibia 9.98834
rfoot -18.8506 -3.16945
rtoes -33.4413
lfemur -48.5169 -3.3967 -18.9723
ltibia 64.2029
lfoot -6.03903 7.34006
ltoes -21.1473
377
root 23.7496 16.198 9.316 -158.316 3.10638 180.004
lowerback -27.3447 -1.44955 -5.09336
upperback 0.947035 -0.0345206 0.363843
thorax 15.7518 -0.327124 3.22224
lowerneck 3.30451 -0.381917 -3.27713
upperneck 13.8066 -0.335018 9.29261
head 3.56338 0.525043 3.41202
rclavicle 1.39149e-015 -9.93923e-016
rhumerus -33.2256 -12.3564 -81.1888
rradius 42.5717
rwrist -8.20557
rhand -8.21262 -54.465
rfingers 7.12502
rthumb 17.7042 276.321
lclavicle 1.39149e-015 -9.93923e-016
lhumerus -33.1802 3.97129 77.485
lradius 24.3531
lwrist -0.445141
lhand -22.0021 -9.11966
lfingers 7.12502
lthumb 4.40673 20.8145
rfemur -20.7373 4.94232 24.7868
rtibia 10.0407
rfoot -19.2684 -2.98871
rtoes -33.813
lfemur -49.0781 -3.7565 -18.8313
ltibia 62.4058
lfoot -6.47403 7.51551
ltoes -18.7791
